<svg width="1840" height="1380" viewBox="0 0 1840 1380" fill="none" xmlns="http://www.w3.org/2000/svg">
<g clip-path="url(#clip0_2698_3897)">
<path d="M1201.49 711.919H641.858C625.521 711.919 612.352 698.657 612.352 682.426V332.064C612.352 315.734 625.62 302.57 641.858 302.57H1201.49C1217.83 302.57 1231 315.833 1231 332.064V682.426C1231 698.657 1217.73 711.919 1201.49 711.919Z" fill="#C08FFF"/>
<path d="M1231 367.6H612.254V331.97C612.254 315.64 625.522 302.477 641.761 302.477H1201.4C1217.73 302.477 1230.9 315.739 1230.9 331.97V367.6H1231Z" fill="white"/>
<path d="M1231 570.688V682.328C1231 698.659 1217.73 711.822 1201.49 711.822H641.858C625.521 711.822 612.352 698.56 612.352 682.328V615.324" stroke="#191919" stroke-width="5" stroke-miterlimit="10" stroke-linecap="round" stroke-linejoin="round"/>
<path d="M842.664 302.477H1201.4C1217.74 302.477 1230.9 315.739 1230.9 331.97V544.761" stroke="#191919" stroke-width="5" stroke-miterlimit="10" stroke-linecap="round" stroke-linejoin="round"/>
<path d="M1142.48 711.926V367.602H700.875V764.381V923.825H965.346H1053.87H1098.13C1122.58 923.825 1142.39 904.031 1142.39 879.585L1142.48 711.926Z" fill="white"/>
<path d="M612.254 396.005V331.97C612.254 315.64 625.522 302.477 641.761 302.477H725.726" stroke="#191919" stroke-width="5" stroke-miterlimit="10" stroke-linecap="round" stroke-linejoin="round"/>
<path d="M612.254 570.691V450.242" stroke="#191919" stroke-width="5" stroke-miterlimit="10" stroke-linecap="round" stroke-linejoin="round"/>
<path d="M771.371 302.477H819.196" stroke="#191919" stroke-width="5" stroke-miterlimit="10" stroke-linecap="round" stroke-linejoin="round"/>
<path d="M912.568 367.602H612.254" stroke="#191919" stroke-width="5" stroke-miterlimit="10" stroke-linecap="round" stroke-linejoin="round"/>
<path d="M1231.01 367.602H970.297" stroke="#191919" stroke-width="5" stroke-miterlimit="10" stroke-linecap="round" stroke-linejoin="round"/>
<path d="M650.079 347.608C657.024 347.608 662.654 341.98 662.654 335.038C662.654 328.096 657.024 322.469 650.079 322.469C643.134 322.469 637.504 328.096 637.504 335.038C637.504 341.98 643.134 347.608 650.079 347.608Z" fill="#191919"/>
<path d="M694.735 347.608C701.68 347.608 707.31 341.98 707.31 335.038C707.31 328.096 701.68 322.469 694.735 322.469C687.79 322.469 682.16 328.096 682.16 335.038C682.16 341.98 687.79 347.608 694.735 347.608Z" fill="#191919"/>
<path d="M739.391 347.608C746.336 347.608 751.966 341.98 751.966 335.038C751.966 328.096 746.336 322.469 739.391 322.469C732.446 322.469 726.816 328.096 726.816 335.038C726.816 341.98 732.446 347.608 739.391 347.608Z" fill="#191919"/>
<path d="M900.191 639.078H1040.4" stroke="#191919" stroke-width="5" stroke-miterlimit="10" stroke-linecap="round" stroke-linejoin="round"/>
<path d="M900.191 676.492H960.888" stroke="#191919" stroke-width="5" stroke-miterlimit="10" stroke-linecap="round" stroke-linejoin="round"/>
<path d="M900.191 657.781H1040.4" stroke="#191919" stroke-width="5" stroke-miterlimit="10" stroke-linecap="round" stroke-linejoin="round"/>
<path d="M1097.63 923.819H965.344V808.616C965.344 784.169 985.147 764.375 1009.6 764.375C1021.88 764.375 1032.87 769.324 1040.89 777.34C1048.91 785.357 1053.86 796.442 1053.86 808.616V879.48C1053.86 903.827 1073.37 923.522 1097.63 923.819Z" fill="#191919" stroke="#191919" stroke-width="5" stroke-miterlimit="10" stroke-linecap="round" stroke-linejoin="round"/>
<path d="M1133.67 906.01C1133.28 906.604 1132.78 907.099 1132.39 907.693C1131.49 908.782 1130.5 909.87 1129.51 910.86C1128.72 911.652 1128.03 912.345 1127.14 913.037C1126.84 913.235 1126.64 913.532 1126.35 913.73C1125.85 914.126 1125.26 914.621 1124.66 915.017C1124.07 915.413 1123.47 915.809 1122.98 916.204C1122.09 916.798 1121.2 917.392 1120.31 917.887C1119.81 918.184 1119.32 918.481 1118.72 918.778C1116.74 919.867 1114.66 920.757 1112.48 921.45C1110.8 922.044 1109.02 922.539 1107.24 922.836C1106.94 922.935 1106.64 922.935 1106.44 923.034C1105.95 923.133 1105.45 923.232 1104.96 923.331C1102.78 923.627 1100.6 923.825 1098.42 923.825H1097.83C1073.67 923.528 1054.16 903.833 1054.16 879.585V808.721C1054.16 796.448 1049.21 785.462 1041.19 777.445C1033.17 769.429 1022.08 764.48 1009.9 764.48C985.446 764.48 965.643 784.275 965.643 808.721V923.924H700.875V367.602" stroke="#191919" stroke-width="5" stroke-miterlimit="10" stroke-linecap="round" stroke-linejoin="round"/>
<path d="M1142.48 367.602V841.184" stroke="#191919" stroke-width="5" stroke-miterlimit="10" stroke-linecap="round" stroke-linejoin="round"/>
<path d="M1053.86 879.58V808.617" stroke="#191919" stroke-width="5" stroke-miterlimit="10" stroke-linecap="round" stroke-linejoin="round"/>
<path d="M992.972 764.375C990.001 766.849 987.229 769.621 984.951 772.788C973.862 780.804 966.633 793.869 966.633 808.616V1033.28C966.633 1057.73 946.83 1077.52 922.373 1077.52C910.095 1077.52 899.105 1072.57 891.084 1064.56C883.064 1056.54 878.113 1045.46 878.113 1033.28V1004.18H525.023V808.616C525.023 784.169 544.827 764.375 569.283 764.375H992.972Z" fill="white"/>
<path d="M725.824 799.516H912.568" stroke="#191919" stroke-width="5" stroke-miterlimit="10" stroke-linecap="round" stroke-linejoin="round"/>
<path d="M900.191 455.586H1040.4" stroke="#191919" stroke-width="5" stroke-miterlimit="10" stroke-linecap="round" stroke-linejoin="round"/>
<path d="M900.191 492.992H960.888" stroke="#191919" stroke-width="5" stroke-miterlimit="10" stroke-linecap="round" stroke-linejoin="round"/>
<path d="M900.191 474.289H1040.4" stroke="#191919" stroke-width="5" stroke-miterlimit="10" stroke-linecap="round" stroke-linejoin="round"/>
<path d="M798.207 844.25H912.57" stroke="#191919" stroke-width="5" stroke-miterlimit="10" stroke-linecap="round" stroke-linejoin="round"/>
<path d="M617.402 844.25H770.481" stroke="#191919" stroke-width="5" stroke-miterlimit="10" stroke-linecap="round" stroke-linejoin="round"/>
<path d="M705.527 889.086H745.728H850.585" fill="#191919"/>
<path d="M705.527 889.086H745.728H850.585" stroke="#191919" stroke-width="5" stroke-miterlimit="10" stroke-linecap="round" stroke-linejoin="round"/>
<path d="M575.719 889.086H664.536" stroke="#191919" stroke-width="5" stroke-miterlimit="10" stroke-linecap="round" stroke-linejoin="round"/>
<path d="M836.523 933.82H912.568" stroke="#191919" stroke-width="5" stroke-miterlimit="10" stroke-linecap="round" stroke-linejoin="round"/>
<path d="M575.719 933.82H812.366" stroke="#191919" stroke-width="5" stroke-miterlimit="10" stroke-linecap="round" stroke-linejoin="round"/>
<path d="M575.719 978.555H766.72" stroke="#191919" stroke-width="5" stroke-miterlimit="10" stroke-linecap="round" stroke-linejoin="round"/>
<path d="M965.346 1023.58V808.616C965.346 798.916 968.415 790.009 973.762 782.685C976.04 779.518 978.713 776.747 981.684 774.272C989.308 768.037 999.011 764.375 1009.61 764.375H891.777" stroke="#191919" stroke-width="5" stroke-miterlimit="10" stroke-linecap="round" stroke-linejoin="round"/>
<path d="M523.734 830.587V808.616C523.734 784.169 543.538 764.375 567.994 764.375H855.338" stroke="#191919" stroke-width="5" stroke-miterlimit="10" stroke-linecap="round" stroke-linejoin="round"/>
<path d="M954.156 1062.78C946.036 1071.89 934.253 1077.63 921.084 1077.63C908.806 1077.63 897.816 1072.68 889.795 1064.66C881.775 1056.65 876.824 1045.56 876.824 1033.39V1004.29H523.734V889.086" stroke="#191919" stroke-width="5" stroke-miterlimit="10" stroke-linecap="round" stroke-linejoin="round"/>
<path d="M921.085 1077.53H479.178C454.721 1077.53 434.918 1057.73 434.918 1033.29V1004.19H876.825V1033.29C876.825 1045.56 881.776 1056.54 889.796 1064.56C897.816 1072.58 908.807 1077.53 921.085 1077.53Z" fill="white"/>
<path d="M921.085 1077.53H479.178C454.721 1077.53 434.918 1057.73 434.918 1033.29V1004.19H876.825V1033.29C876.825 1045.56 881.776 1056.54 889.796 1064.56C897.816 1072.58 908.807 1077.53 921.085 1077.53Z" fill="#191919" stroke="#191919" stroke-width="5" stroke-miterlimit="10" stroke-linecap="round" stroke-linejoin="round"/>
<path d="M1044.46 739.438H1044.36" stroke="#191919" stroke-width="5" stroke-miterlimit="10" stroke-linecap="round" stroke-linejoin="round"/>
<path d="M1341.21 732.31C1332.69 725.877 1319.23 727.658 1310.02 736.962C1300.71 746.265 1298.93 759.725 1305.37 768.138C1230.81 825.146 1123.67 819.505 1055.55 751.412C1051.69 747.552 1048.02 743.494 1044.56 739.436C1119.12 802.481 1231.01 798.819 1301.41 728.45C1371.81 658.081 1375.47 546.242 1312.4 471.617C1316.55 475.081 1320.52 478.743 1324.38 482.603C1392.6 550.696 1398.24 657.784 1341.21 732.31Z" fill="#191919" stroke="#191919" stroke-width="5" stroke-miterlimit="10" stroke-linecap="round" stroke-linejoin="round"/>
<path d="M1312.59 471.523C1309.13 467.366 1305.46 463.407 1301.5 459.547C1227.24 385.318 1106.74 385.318 1032.48 459.547C958.216 533.776 958.216 654.225 1032.48 728.454C1036.34 732.314 1040.4 735.976 1044.46 739.44C1119.22 802.486 1231 798.725 1301.4 728.355C1371.9 658.085 1375.57 546.247 1312.59 471.523Z" fill="#8AFFD8"/>
<path d="M976.93 603.646C979.207 649.075 997.723 693.711 1032.38 728.45C1036.24 732.31 1040.3 735.972 1044.36 739.436C1119.12 802.482 1231 798.82 1301.4 728.45C1371.8 658.081 1375.47 546.243 1312.49 471.617C1309.03 467.461 1305.36 463.502 1301.5 459.642C1247.24 405.405 1168.33 390.757 1100.8 415.797" stroke="#191919" stroke-width="5" stroke-miterlimit="10" stroke-linecap="round" stroke-linejoin="round"/>
<path d="M1065.25 695.491C1009.11 639.374 1009.11 548.518 1065.25 492.4C1121.39 436.283 1212.29 436.283 1268.43 492.4C1272.29 496.26 1275.96 500.318 1279.32 504.574C1222.88 459.641 1140.5 463.204 1088.32 515.461C1036.14 567.619 1032.48 649.964 1077.43 706.378C1073.27 703.013 1069.21 699.45 1065.25 695.491Z" fill="#191919" stroke="#191919" stroke-width="5" stroke-miterlimit="10" stroke-linecap="round" stroke-linejoin="round"/>
<path d="M1268.53 695.494C1216.35 747.652 1133.97 751.314 1077.53 706.381C1032.58 649.967 1036.14 567.622 1088.42 515.464C1140.6 463.305 1222.98 459.643 1279.42 504.577C1324.38 560.991 1320.71 643.336 1268.53 695.494Z" fill="white"/>
<path d="M1236.94 719.448C1186.84 747.457 1123.47 743.102 1077.43 706.482C1032.48 650.068 1036.04 567.723 1088.32 515.565C1140.5 463.407 1222.88 459.745 1279.32 504.678C1309.03 541.892 1317.54 590.388 1304.87 634.035" stroke="#191919" stroke-width="5" stroke-miterlimit="10" stroke-linecap="round" stroke-linejoin="round"/>
<path d="M1280.02 682.531C1276.45 686.985 1272.69 691.34 1268.53 695.497C1264.97 699.06 1261.3 702.326 1257.54 705.394" stroke="#191919" stroke-width="5" stroke-miterlimit="10" stroke-linecap="round" stroke-linejoin="round"/>
<path d="M1505.67 875.03C1496.86 868.3 1478.24 874.733 1462.9 889.975C1447.65 905.216 1441.21 923.823 1447.95 932.731L1306.85 770.02C1306.25 769.427 1305.76 768.833 1305.26 768.239C1298.83 759.727 1300.61 746.267 1309.92 737.063C1319.23 727.759 1332.69 725.879 1341.11 732.411C1341.8 732.906 1342.4 733.401 1342.89 733.994L1505.67 875.03Z" fill="#8AFFD8"/>
<path d="M1429.23 808.62L1505.77 874.931C1496.96 868.201 1478.34 874.634 1463 889.876C1447.75 905.117 1441.31 923.724 1448.04 932.632L1306.85 770.02C1306.25 769.427 1305.76 768.833 1305.26 768.239C1298.83 759.727 1300.61 746.267 1309.92 737.063C1319.23 727.759 1332.69 725.879 1341.11 732.411C1341.8 732.906 1342.4 733.401 1342.89 733.994L1394.87 779.027" stroke="#191919" stroke-width="5" stroke-miterlimit="10" stroke-linecap="round" stroke-linejoin="round"/>
<path d="M1506.86 876.021L1505.67 875.031" stroke="#191919" stroke-width="5" stroke-miterlimit="10" stroke-linecap="round" stroke-linejoin="round"/>
<path d="M1449.04 933.82L1448.05 932.633" stroke="#191919" stroke-width="5" stroke-miterlimit="10" stroke-linecap="round" stroke-linejoin="round"/>
<path d="M1492.9 919.865C1476.96 935.8 1457.25 942.035 1449.04 933.82C1448.64 933.425 1448.34 933.029 1448.05 932.633C1441.31 923.824 1447.75 905.217 1463 889.877C1478.25 874.635 1496.86 868.202 1505.77 874.932C1506.17 875.229 1506.56 875.625 1506.96 875.922C1515.18 884.235 1508.94 903.931 1492.9 919.865Z" fill="#191919" stroke="#191919" stroke-width="5" stroke-miterlimit="10" stroke-linecap="round" stroke-linejoin="round"/>
<path d="M1160.01 570.688C1160.01 585.038 1148.32 596.717 1133.97 596.717C1119.61 596.717 1107.93 585.038 1107.93 570.688" stroke="#191919" stroke-width="5" stroke-miterlimit="10" stroke-linecap="round" stroke-linejoin="round"/>
<path d="M1259.72 570.688C1259.72 585.038 1248.03 596.717 1233.67 596.717C1219.32 596.717 1207.63 585.038 1207.63 570.688" stroke="#191919" stroke-width="5" stroke-miterlimit="10" stroke-linecap="round" stroke-linejoin="round"/>
<path d="M1183.87 658.184C1191.75 658.184 1198.13 651.803 1198.13 643.932C1198.13 636.061 1191.75 629.68 1183.87 629.68C1176 629.68 1169.61 636.061 1169.61 643.932C1169.61 651.803 1176 658.184 1183.87 658.184Z" fill="#191919" stroke="#191919" stroke-width="5" stroke-miterlimit="10" stroke-linecap="round" stroke-linejoin="round"/>
<path d="M724.738 528.227C711.668 526.148 703.351 514.866 703.351 502.989C703.351 497.941 704.836 492.795 708.202 488.242C721.569 469.734 706.222 447.663 687.607 447.663C682.656 447.663 677.607 449.148 672.755 452.711C657.407 463.796 635.822 454.789 632.752 436.183C630.475 421.931 618.989 414.805 607.602 414.805C596.216 414.805 584.829 421.931 582.452 436.183C580.373 449.247 569.085 457.561 557.302 457.561C552.253 457.561 547.104 456.076 542.45 452.711C523.934 439.35 501.854 454.69 501.854 473.297C501.854 478.246 503.339 483.293 506.903 488.143C510.171 492.696 511.755 497.842 511.755 502.89C511.755 514.668 503.438 525.95 490.368 528.128C476.11 530.404 468.98 541.885 468.98 553.267C468.98 564.649 476.11 576.03 490.368 578.406C503.438 580.484 511.755 591.767 511.755 603.644C511.755 608.691 510.27 613.838 506.903 618.391C493.536 636.898 508.884 658.969 527.499 658.969C532.351 658.969 537.499 657.485 542.351 653.922C557.699 642.837 579.284 651.843 582.353 670.45C587.007 698.954 628 698.954 632.653 670.45C634.733 657.386 646.021 649.072 657.803 649.072C662.853 649.072 668.002 650.557 672.656 653.922C691.172 667.283 713.252 651.942 713.252 633.335C713.252 628.387 711.767 623.339 708.202 618.489C704.935 613.937 703.351 608.79 703.351 603.743C703.351 591.965 711.668 580.682 724.738 578.505C738.996 576.228 746.125 564.748 746.125 553.366C746.125 541.984 738.996 530.503 724.738 528.227ZM607.503 597.408C583.146 597.408 563.441 577.713 563.441 553.366C563.441 529.019 583.146 509.323 607.503 509.323C631.861 509.323 651.565 529.019 651.565 553.366C651.565 577.713 631.861 597.408 607.503 597.408Z" fill="#8AFFD8"/>
<path d="M703.052 503.088C703.052 498.04 704.537 492.894 707.904 488.341C721.271 469.833 705.924 447.762 687.309 447.762C682.358 447.762 677.308 449.247 672.456 452.81C657.109 463.895 635.524 454.888 632.454 436.282C629.979 421.931 618.592 414.805 607.205 414.805C595.818 414.805 584.431 421.931 582.055 436.183C579.976 449.247 568.688 457.561 556.905 457.561C551.855 457.561 546.706 456.076 542.053 452.711C530.468 444.397 517.497 447.268 509.477 455.086" stroke="#191919" stroke-width="5" stroke-miterlimit="10" stroke-linecap="round" stroke-linejoin="round"/>
<path d="M566.113 650.859C574.134 653.927 580.57 660.954 582.055 670.555C586.709 699.059 627.701 699.059 632.355 670.555C634.434 657.49 645.722 649.177 657.505 649.177C662.555 649.177 667.703 650.661 672.357 654.026C690.873 667.387 712.954 652.047 712.954 633.44C712.954 628.491 711.468 623.444 707.904 618.594C704.636 614.041 703.052 608.895 703.052 603.847C703.052 592.07 711.369 580.787 724.439 578.609" stroke="#191919" stroke-width="5" stroke-miterlimit="10" stroke-linecap="round" stroke-linejoin="round"/>
<path d="M506.505 488.242C509.773 492.795 511.357 497.941 511.357 502.989C511.357 514.767 503.039 526.05 489.969 528.227C475.711 530.503 468.582 541.984 468.582 553.366C468.582 564.748 475.711 576.13 489.969 578.505C503.039 580.583 511.357 591.866 511.357 603.743C511.357 608.79 509.872 613.937 506.505 618.49C494.821 634.721 505.119 653.625 520.367 658.078" stroke="#191919" stroke-width="5" stroke-miterlimit="10" stroke-linecap="round" stroke-linejoin="round"/>
<path d="M643.739 578.015C635.818 589.694 622.451 597.413 607.203 597.413C582.845 597.413 563.141 577.718 563.141 553.371C563.141 529.024 582.845 509.328 607.203 509.328C625.223 509.328 640.67 520.116 647.502 535.556" stroke="#191919" stroke-width="5" stroke-miterlimit="10" stroke-linecap="round" stroke-linejoin="round"/>
<path d="M594.135 732.804C593.64 732.804 593.145 732.804 592.551 732.804C578.985 733.596 567.797 722.808 567.797 709.446C567.797 708.952 567.797 708.556 567.797 708.061C568.688 692.72 556.41 683.219 544.132 683.219C536.112 683.219 528.091 687.178 523.537 696.184C517.299 708.655 501.456 712.91 489.772 705.191C472.742 694.007 453.335 707.863 453.335 724.688C453.335 728.944 454.523 733.299 457.394 737.554C459.969 741.513 461.256 745.967 461.256 750.322C461.256 758.834 456.602 767.147 448.384 771.304C426.105 782.488 434.522 815.644 458.681 815.644C459.176 815.644 459.672 815.644 460.266 815.644C473.732 814.852 485.02 825.64 485.02 839.001C485.02 839.496 485.02 839.892 485.02 840.387C484.128 855.727 496.406 865.229 508.684 865.229C516.705 865.229 524.725 861.27 529.28 852.263C533.438 844.049 541.756 839.397 550.271 839.397C554.628 839.397 559.083 840.684 563.044 843.257C580.075 854.441 599.482 840.585 599.482 823.759C599.482 819.503 598.293 815.149 595.422 810.893C592.848 806.934 591.56 802.48 591.56 798.125C591.56 789.614 596.214 781.3 604.432 777.143C626.711 765.96 618.394 732.804 594.135 732.804ZM526.408 802.975C510.566 802.975 497.694 790.109 497.694 774.273C497.694 758.438 510.566 745.571 526.408 745.571C542.251 745.571 555.123 758.438 555.123 774.273C555.123 790.109 542.251 802.975 526.408 802.975Z" fill="#8AFFD8"/>
<path d="M590.47 841.181C595.817 836.826 599.382 830.195 599.382 822.97C599.382 818.714 598.193 814.36 595.322 810.104C592.748 806.145 591.46 801.691 591.46 797.336C591.46 788.825 596.114 780.511 604.332 776.354C626.611 765.17 618.195 732.015 594.035 732.015C593.54 732.015 593.045 732.015 592.451 732.015C578.885 732.807 567.697 722.019 567.697 708.657C567.697 708.162 567.697 707.767 567.697 707.272C568.588 691.931 556.31 682.43 544.032 682.43C536.012 682.43 527.991 686.389 523.437 695.395C518.585 705.094 507.891 709.845 497.891 707.866" stroke="#191919" stroke-width="5" stroke-miterlimit="10" stroke-linecap="round" stroke-linejoin="round"/>
<path d="M484.921 838.312C484.921 838.807 484.921 839.203 484.921 839.698C484.03 855.039 496.308 864.54 508.585 864.54C516.606 864.54 524.626 860.581 529.181 851.575C533.339 843.36 541.657 838.708 550.172 838.708C552.846 838.708 555.519 839.203 558.093 840.094" stroke="#191919" stroke-width="5" stroke-miterlimit="10" stroke-linecap="round" stroke-linejoin="round"/>
<path d="M463.235 705.094C457.294 709.449 453.334 716.476 453.334 723.997C453.334 728.253 454.522 732.608 457.393 736.864C459.968 740.823 461.255 745.276 461.255 749.631C461.255 758.143 456.601 766.457 448.383 770.613" stroke="#191919" stroke-width="5" stroke-miterlimit="10" stroke-linecap="round" stroke-linejoin="round"/>
<path d="M509.377 750.324C514.129 746.86 519.971 744.781 526.308 744.781C542.151 744.781 555.023 757.648 555.023 773.483C555.023 789.319 542.151 802.185 526.308 802.185C510.466 802.185 497.594 789.319 497.594 773.483" stroke="#191919" stroke-width="5" stroke-miterlimit="10" stroke-linecap="round" stroke-linejoin="round"/>
<path d="M376.696 601.664L398.777 627.1L332.238 644.024L394.816 667.283L362.24 703.111L420.164 686.681L421.451 705.09L443.829 693.312" stroke="#191919" stroke-width="5" stroke-miterlimit="10" stroke-linecap="round" stroke-linejoin="round"/>
<path d="M449.672 578.21L426.403 551.587L417.789 585.831L328.477 545.648L363.132 585.93" stroke="#191919" stroke-width="5" stroke-miterlimit="10" stroke-linecap="round" stroke-linejoin="round"/>
<path d="M1346.46 443.506L1391.91 398.078" stroke="#191919" stroke-width="5" stroke-miterlimit="10" stroke-linecap="round" stroke-linejoin="round"/>
<path d="M1363.59 474.186L1393.98 465.477" stroke="#191919" stroke-width="5" stroke-miterlimit="10" stroke-linecap="round" stroke-linejoin="round"/>
<path d="M1315.76 426.384L1324.48 396" stroke="#191919" stroke-width="5" stroke-miterlimit="10" stroke-linecap="round" stroke-linejoin="round"/>
<path d="M1212.19 868.398H1010.79V999.141H1212.19V868.398Z" fill="#C08FFF"/>
<path d="M1169.52 868.102H1010.79V998.844H1060.89" stroke="#191919" stroke-width="5" stroke-miterlimit="10" stroke-linecap="round" stroke-linejoin="round"/>
<path d="M1212.29 932.631V868.102" stroke="#191919" stroke-width="5" stroke-miterlimit="10" stroke-linecap="round" stroke-linejoin="round"/>
<path d="M1060.89 964.996L1108.52 932.632L1060.89 900.367" stroke="#191919" stroke-width="5" stroke-miterlimit="10" stroke-linecap="round" stroke-linejoin="round"/>
<path d="M1114.86 966.578H1162.19" stroke="#191919" stroke-width="5" stroke-miterlimit="10" stroke-linecap="round" stroke-linejoin="round"/>
<path d="M807.017 535.551C840.867 535.551 868.308 508.122 868.308 474.287C868.308 440.452 840.867 413.023 807.017 413.023C773.167 413.023 745.727 440.452 745.727 474.287C745.727 508.122 773.167 535.551 807.017 535.551Z" fill="#C08FFF"/>
<path d="M822.958 474.287L841.474 455.78C842.959 454.295 842.959 451.722 841.474 450.237L831.87 440.637C830.384 439.152 827.81 439.152 826.325 440.637L807.809 459.145L789.293 440.637C787.808 439.152 785.233 439.152 783.748 440.637L774.144 450.237C772.658 451.722 772.658 454.295 774.144 455.78L792.659 474.287L771.371 495.566L783.748 507.938C785.233 509.423 787.808 509.423 789.293 507.938L807.809 489.43L826.325 507.938C827.81 509.423 830.384 509.423 831.87 507.938L841.474 498.338C842.959 496.853 842.959 494.28 841.474 492.795L822.958 474.287Z" fill="white"/>
<path d="M807.017 719.051C840.867 719.051 868.308 691.622 868.308 657.787C868.308 623.952 840.867 596.523 807.017 596.523C773.167 596.523 745.727 623.952 745.727 657.787C745.727 691.622 773.167 719.051 807.017 719.051Z" fill="#C08FFF"/>
<path d="M822.958 657.787L841.474 639.28C842.959 637.795 842.959 635.222 841.474 633.737L831.87 624.137C830.384 622.652 827.81 622.652 826.325 624.137L807.809 642.645L789.293 624.137C787.808 622.652 785.233 622.652 783.748 624.137L774.144 633.737C772.658 635.222 772.658 637.795 774.144 639.28L792.659 657.787L771.371 679.066L783.748 691.438C785.233 692.923 787.808 692.923 789.293 691.438L807.809 672.93L826.325 691.438C827.81 692.923 830.384 692.923 831.87 691.438L841.474 681.838C842.959 680.353 842.959 677.78 841.474 676.295L822.958 657.787Z" fill="white"/>
</g>
<defs>
<clipPath id="clip0_2698_3897">
<rect width="1187" height="780" fill="white" transform="translate(326 300)"/>
</clipPath>
</defs>
</svg>
